<?xml version="1.0" standalone="no"?>
<!DOCTYPE svg PUBLIC "-//W3C//DTD SVG 1.1//EN" "http://www.w3.org/Graphics/SVG/1.1/DTD/svg11.dtd" >
<svg xmlns="http://www.w3.org/2000/svg">
<metadata>
This is a custom SVG webfont generated by Font Squirrel.
Copyright   : Enigmatic Italic 2002 by Starving4 Entertainment dartpuzzlersorg This font is licensed under the terms of the Design Science Licence httpdslorgcopyleftdsltxt
Designer    : Darren Rigby
Foundry     : Starving4 Entertainment
Foundry URL : httpdartcanadatripodcomObjets
</metadata>
<defs>
<font id="webfontnOV5mgtV" horiz-adv-x="1024" >
<font-face units-per-em="2048" ascent="1638" descent="-410" />
<missing-glyph horiz-adv-x="512" />
<glyph unicode=" "  horiz-adv-x="512" />
<glyph unicode="&#x09;" horiz-adv-x="512" />
<glyph unicode="&#xa0;" horiz-adv-x="512" />
<glyph unicode="!" horiz-adv-x="382" d="M-133 106q-20 -106 86 -106q109 0 129 106.5t-86 106.5q-109 -1 -129 -107zM-59 319h161l265 1217h-213z" />
<glyph unicode="&#x22;" horiz-adv-x="638" d="M8 1493q0 -84 43 -213h43q92 125 127 213q25 129 -80 129q-108 0 -133 -129zM350 1493q0 -84 43 -213h41q96 131 129 213q25 129 -81.5 129t-131.5 -129z" />
<glyph unicode="#" horiz-adv-x="1193" d="M0 342h162l-76 -342h213l76 342h299l-76 -342h213l76 342h180v127h-154l136 598h188v127h-162l76 342h-213l-76 -342h-299l76 342h-213l-76 -342h-180v-127h149l-126 -598h-193v-127zM406 469l126 598h299l-131 -598h-294z" />
<glyph unicode="$" horiz-adv-x="1107" d="M2 532q-80 -406 324 -405l-29 -147h127l31 147q406 0 493 448q53 256 -303 322l-35 8l78 395q96 0 136 -36.5t26 -112.5l-16 -84h213q80 406 -324 406l20 106h-127l-22 -106q-403 0 -498 -469q-43 -213 312 -279l36 -6l-84 -420q-96 0 -136 37t-25 113l16 83h-213z M326 1087q43 213 235 213l-76 -378l-39 6q-145 32 -120 159zM487 299l82 401l25 -6q152 -35 121 -162q-48 -233 -228 -233z" />
<glyph unicode="%" horiz-adv-x="1449" d="M-154 0h236l1352 1536h-236zM68 1110q-66 -322 235 -322q297 0 363 322l16 84q74 362 -225 362q-297 0 -371 -362zM209 1067l16 84q55 279 205 279t113 -193l-19 -86q-46 -233 -196 -233q-150 -1 -119 149zM590 299q-65 -319 233 -319t363 319l18 86q74 362 -227 363 q-297 0 -371 -363zM729 256l19 86q55 276 204 276q147 0 111 -192l-19 -84q-47 -236 -194 -236q-152 0 -121 150z" />
<glyph unicode="&#x26;" horiz-adv-x="1280" d="M-78 385l78 383q37 193 229 193q-86 104 -59 233l18 86q55 276 482 276q213 0 306 -68.5t64 -207.5l-41 -213h-215l35 170q14 76 -32 112.5t-152 36.5q-213 0 -242 -145l-4 -24q-12 -66 33 -150l352 -764q33 45 53 123l43 213h213l-59 -297q-25 -117 -121 -205l80 -137 h-262l-21 27q-109 -47 -346 -47q-256 0 -364.5 101t-67.5 304zM145 426q-55 -276 244 -276q129 0 203 38l-246 600q-117 63 -149 -106z" />
<glyph unicode="'" horiz-adv-x="382" d="M-35 1194q213 0 260 236q20 106 -84 106q-109 0 -129 -106.5t86 -106.5q-12 -63 -118 -63z" />
<glyph unicode="(" horiz-adv-x="702" d="M0 768q-172 -852 346 -938l33 170q-295 129 -166 768t473 768l35 170q-549 -86 -721 -938z" />
<glyph unicode=")" horiz-adv-x="677" d="M-188 -170q549 86 721 938t-345 938l-34 -170q295 -129 165 -768q-129 -639 -473 -768z" />
<glyph unicode="*" horiz-adv-x="665" d="M0 1331l45 90l195 -4l94 185h92l20 -187l195 4l10 -88l-182 -110l27 -185l-86 -55l-131 119l-179 -117l-63 53l100 185z" />
<glyph unicode="+" horiz-adv-x="894" d="M0 682l35 172h340l69 340h170l-67 -340h340l-33 -172h-342l-68 -340h-172l70 340h-342z" />
<glyph unicode="," horiz-adv-x="382" d="M-43 -213q215 0 279 319q20 106 -86 107q-109 0 -129.5 -106.5t85.5 -106.5q-31 -150 -137 -150z" />
<glyph unicode="-" horiz-adv-x="870" d="M0 682h854l33 172h-852z" />
<glyph unicode="." horiz-adv-x="464" d="M127 104q-23 -109 82 -108q106 0 129 108q23 111 -84 111t-127 -111z" />
<glyph unicode="/" d="M-248 -43l1221 1622h213l-1221 -1622h-213z" />
<glyph unicode="0" horiz-adv-x="1107" d="M0 512q-106 -532 332 -532q440 0 606 831l43 213q106 532 -332 532q-440 0 -606 -831zM197 426l43 213q152 748 374 747q227 0 181 -235l-54 -254q-152 -748 -374 -747q-225 0 -170 276z" />
<glyph unicode="1" horiz-adv-x="1107" d="M375 0h215l307 1536h-215q-25 -127 -272 -127l-35 -172h248z" />
<glyph unicode="2" horiz-adv-x="1107" d="M-156 0l68 342q74 340 575 512q272 86 316 320q43 213 -213 212q-255 0 -320 -319h-213l25 127q74 362 543 362q467 0 379 -446q-47 -258 -553 -448q-276 -86 -334 -363l-25 -129h725l-35 -170h-938z" />
<glyph unicode="3" horiz-adv-x="1107" d="M-59 469q-98 -489 370.5 -489t567.5 489q59 299 -146 342q233 86 266 256q98 489 -372 489q-469 0 -549 -405l-19 -84h213q63 319 322 319q256 0 209 -235q-51 -254 -266 -254h-170l-35 -172h172q106 0 150 -42t28 -128q-80 -406 -336 -405.5t-209 235.5l17 84h-213z" />
<glyph unicode="4" horiz-adv-x="1107" d="M-8 299h631l-60 -299h213l60 299h94l35 170h-95l213 1067h-213l-845 -1067zM229 469l580 756l-152 -756h-428z" />
<glyph unicode="5" horiz-adv-x="1107" d="M-57 469q-98 -489 370 -489q467 0 584 575l27 127q88 449 -273 448q-365 0 -397 -169l80 405h727l33 170h-938l-162 -811h213l16 86q31 150 287 150t225 -150l-24 -129q-106 -532 -363 -532q-127 0 -182 48t-37 144l27 127h-213z" />
<glyph unicode="6" horiz-adv-x="1107" d="M-51 512l119 598q88 446 559 446t372 -489h-215l19 84q47 236 -209 235.5t-330 -362.5l-47 -236q33 172 397 173q360 0 273 -449q-106 -532 -575 -532t-363 532zM145 426q-55 -276 201 -276t346 448q18 94 -37 142t-182 48q-254 0 -328 -362z" />
<glyph unicode="7" horiz-adv-x="1107" d="M6 0h215q78 236 266 655q182 408 521 676l41 205h-852l-35 -170h694q-350 -250 -508 -569q-160 -326 -342 -797z" />
<glyph unicode="8" horiz-adv-x="1107" d="M-59 469q-98 -489 370 -489q471 0 551 405q76 383 -129 426q231 86 275 299q88 446 -381 446q-467 0 -541 -362q-68 -340 135 -383q-227 -86 -280 -342zM137 385q68 340 324 340q258 0 205 -256q-65 -319 -320 -319q-256 -1 -209 235zM283 1110q55 276 311 276 q127 0 181 -48t36 -144q-57 -297 -315 -297q-256 0 -213 213z" />
<glyph unicode="9" horiz-adv-x="1107" d="M-59 469h213l-17 -84q-47 -236 209 -235.5t354 489.5l21 109q-33 -172 -397 -173q-362 0 -265 492q98 489 568 489q471 0 372 -489l-112 -555q-106 -532 -575 -532t-371 489zM256 981q-46 -233 209 -233q258 0 338 403q47 236 -209 235q-258 1 -338 -405z" />
<glyph unicode=":" horiz-adv-x="382" d="M-63 106q-20 -106 83 -106q109 0 129.5 106.5t-86 106t-126.5 -106.5zM63 748q-23 -109 87 -109q104 0 126 109q20 106 -83 106q-110 0 -130 -106z" />
<glyph unicode=";" horiz-adv-x="382" d="M-106 -213q212 0 276 319q20 106 -84 107q-109 0 -129 -106.5t86 -106.5q-31 -150 -137 -150zM86 748q-23 -109 83.5 -109t129.5 109q20 106 -86.5 106t-126.5 -106z" />
<glyph unicode="&#x3c;" horiz-adv-x="878" d="M0 768l571 -555l189 86l-504 469l690 469l-151 86z" />
<glyph unicode="=" horiz-adv-x="1064" d="M78 512h895l35 170h-897zM145 854h895l35 170h-895z" />
<glyph unicode="&#x3e;" horiz-adv-x="856" d="M-94 299l153 -86l795 555l-571 555l-189 -86l504 -469z" />
<glyph unicode="?" horiz-adv-x="989" d="M57 1067l17 84q80 406 594 405q426 -2 346 -405l-27 -127q-43 -213 -418 -348q-82 -20 -118 -207h-215l18 86q53 236 219 279q281 92 318 276l26 127q14 72 -32 109.5t-152 39.5q-298 0 -363 -319h-213zM164 106q-20 -106 86 -106t126.5 106.5t-86 106t-126.5 -106.5z " />
<glyph unicode="@" horiz-adv-x="1449" d="M-53 512l51 256q156 788 797 788q319 0 457.5 -111.5t93.5 -334.5l-52 -256q-104 -526 -360 -520q-127 2 -183.5 42t-39.5 116q-35 -172 -248 -173q-256 0 -201 279l6 33q53 266 396 266q125 0 147 102q20 111 -104 111q-127 0 -158 -149h-215l10 43q55 276 395 276 q342 0 287 -276l-94 -472q-12 -63 31 -63q41 0 127 428l34 170q65 319 -362 319q-426 0 -559 -661l-35 -170q-78 -385 350 -385h383l-33 -170h-385q-319 0 -453 128t-83 384zM479 618q-25 -127 103 -126q129 0 168 200l22 111q-16 -78 -143 -78q-130 -1 -150 -107z" />
<glyph unicode="A" horiz-adv-x="1253" d="M-154 0h240l211 426h463l43 -426h237l-178 1536h-223zM385 598l301 614l55 -614h-356z" />
<glyph unicode="B" horiz-adv-x="1001" d="M-154 0h533q365 0 465 512q11 56 11 102q0 197 -206 197q256 0 324 340q13 67 13 122q0 263 -300 263h-532zM94 170l111 555h235q203 0 203 -129q0 -19 -4 -41q-78 -385 -311 -385h-234zM240 897l92 469h235q205 0 205 -132q0 -19 -4 -40q-57 -297 -295 -297h-233z" />
<glyph unicode="C" d="M0 512q-20 -100 -20 -180q0 -352 382 -352q469 0 568 489h-213q-65 -319 -320 -319q-210 0 -210 187q0 40 10 89l43 213q152 748 405 747q209 0 209 -186q0 -41 -10 -90l-8 -43h213q17 85 17 156q0 334 -388 333q-469 0 -635 -831z" />
<glyph unicode="D" horiz-adv-x="1064" d="M0 0h469q470 0 633 811l41 213q18 92 18 167q0 345 -385 345h-469zM248 170l239 1196h254q214 0 214 -178q0 -36 -9 -78l-41 -213q-145 -727 -401 -727h-256z" />
<glyph unicode="E" horiz-adv-x="937" d="M-154 0h811l35 170h-598l107 535h491l33 169h-489l96 492h598l35 170h-811z" />
<glyph unicode="F" horiz-adv-x="937" d="M-154 0h213l142 705h491l33 169h-489l96 492h598l35 170h-811z" />
<glyph unicode="G" horiz-adv-x="1112" d="M-51 512q-20 -100 -20 -180q0 -352 382 -352q258 0 342 170l33 -150h98l172 854h-548l-35 -172h336l-9 -43q-98 -489 -354 -489q-210 0 -210 187q0 40 9 89l43 213q152 748 406 747q210 0 210 -187q0 -40 -9 -89l-11 -43h215l9 43q14 71 14 131q0 315 -395 315 q-469 0 -635 -831z" />
<glyph unicode="H" horiz-adv-x="1099" d="M-154 0h213l138 682h469l-138 -682h213l308 1536h-213l-136 -682h-471l138 682h-213z" />
<glyph unicode="I" horiz-adv-x="520" d="M0 0l35 170h84l239 1196h-86l35 170h385l-35 -170h-86l-239 -1196h86l-33 -170h-385z" />
<glyph unicode="J" horiz-adv-x="980" d="M-76 385q-13 -67 -13 -122q0 -283 339 -283q403 0 477 362l240 1194h-213l-232 -1151q-47 -236 -239 -235q-148 0 -148 166q0 48 12 110l9 43h-213z" />
<glyph unicode="K" horiz-adv-x="1107" d="M-154 0h213l109 539l190 202l222 -741h251l-299 920l566 616h-248l-612 -643l129 643h-213z" />
<glyph unicode="L" d="M-154 0h854l33 170h-639l273 1366h-213z" />
<glyph unicode="M" horiz-adv-x="1449" d="M-154 0h213l213 1067l86 -1067h256l512 1067l-213 -1067h213l308 1536h-299l-584 -1217l-98 1217h-299z" />
<glyph unicode="N" horiz-adv-x="1150" d="M-154 0h213l224 1110l245 -1110h256l308 1536h-213l-222 -1110l-247 1110h-256z" />
<glyph unicode="O" horiz-adv-x="1001" d="M0 512q-20 -100 -20 -180q0 -352 382 -352q471 0 637 831l41 213q20 100 20 180q0 352 -382 352q-469 0 -635 -831zM197 426l43 213q152 748 405 747q209 0 209 -186q0 -41 -10 -90l-41 -213q-152 -748 -406 -747q-210 0 -210 187q0 40 10 89z" />
<glyph unicode="P" horiz-adv-x="1064" d="M0 0h213l119 598h258q469 0 536 340l35 172q13 66 13 121q0 305 -398 305h-471zM367 768l120 598h254q227 0 227 -135q0 -18 -3 -37l-35 -170q-53 -256 -307 -256h-256z" />
<glyph unicode="Q" horiz-adv-x="1044" d="M-45 512q-20 -100 -20 -180q0 -352 382 -352q104 0 205 36l86 -106l180 47l-100 123q135 111 283 817l43 213q14 72 14 133q0 314 -393 313q-471 0 -637 -831zM152 426l43 213q152 748 405 747q199 0 199 -219q0 -63 -17 -143l-41 -213q-111 -565 -184 -571l-162 204 l-174 -51l193 -239q-37 -4 -62 -4q-210 0 -210 187q0 40 10 89z" />
<glyph unicode="R" horiz-adv-x="1130" d="M-154 0h213l138 682h299q177 0 177 -148q0 -30 -7 -65l-76 -383q-3 -15 -3 -28q0 -58 70 -58h213q-71 0 -70 58q0 13 3 28l67 340q16 82 17 144q0 198 -162 198q215 0 291 383q13 64 13 117q0 268 -320 268h-555zM229 854l103 512h299q185 0 185 -129q0 -20 -5 -43 q-68 -340 -283 -340h-299z" />
<glyph unicode="S" horiz-adv-x="1130" d="M-59 469q-17 -85 -17 -156q0 -334 387 -333q469 0 543 362q19 94 19 173q0 350 -373 403q-213 57 -213 193q0 19 4 40q47 236 303 235q210 0 210 -187q0 -40 -9 -89l-11 -43h215q17 85 17 155q0 335 -389 334q-471 0 -559 -446q-7 -34 -7 -66q0 -245 398 -329 q203 -27 203 -222q0 -49 -13 -108q-47 -236 -303 -235q-210 0 -210 187q0 40 9 89l9 43h-213z" />
<glyph unicode="T" horiz-adv-x="915" d="M0 1366h342l-274 -1366h215l272 1366h342l33 170h-895z" />
<glyph unicode="U" d="M2 512q-21 -106 -21 -191q0 -341 349 -341q479 0 628 745l162 811h-215l-162 -811q-117 -575 -378 -575q-177 0 -177 176q0 44 11 100l221 1110h-213z" />
<glyph unicode="V" horiz-adv-x="1167" d="M154 1536l170 -1536h239l785 1536h-256l-584 -1212l-98 1212h-256z" />
<glyph unicode="W" horiz-adv-x="1560" d="M154 1536l59 -1536h256l346 870l-4 -870h256l674 1536h-240l-497 -1212l71 1212h-256l-413 -1212l-13 1212h-239z" />
<glyph unicode="X" horiz-adv-x="1277" d="M-154 0h248l467 631l215 -631h248l-285 772l592 764h-248l-465 -623l-217 623h-247l286 -764z" />
<glyph unicode="Y" horiz-adv-x="954" d="M154 1536l188 -981l-113 -555h215l111 555l580 981h-256l-387 -768l-82 768h-256z" />
<glyph unicode="Z" horiz-adv-x="1064" d="M-154 0h854l33 170h-618l858 1196l35 170h-854l-35 -170h618l-856 -1196z" />
<glyph unicode="[" horiz-adv-x="595" d="M-188 -170h428l32 170h-213l308 1536h213l34 170h-426z" />
<glyph unicode="\" horiz-adv-x="1044" d="M160 1575l540 -1630h228l-553 1630h-215z" />
<glyph unicode="]" horiz-adv-x="595" d="M-188 -170h428l374 1876h-426l-34 -170h213l-308 -1536h-213z" />
<glyph unicode="^" horiz-adv-x="638" d="M-45 1067l369 469h43l184 -469h-86l-170 213l-256 -213h-84z" />
<glyph unicode="_" horiz-adv-x="1193" d="M-8 -213h1194l18 86h-1196z" />
<glyph unicode="`" horiz-adv-x="296" d="M12 1430q-47 -236 168 -236l13 66q-53 0 -77 15t-18 48q106 0 127 106.5t-84 106.5q-109 0 -129 -106z" />
<glyph unicode="a" d="M-31 401q-16 -78 -16 -142q0 -280 307 -279q262 0 315 256q-16 -83 -16 -137q0 -99 55 -99h213q-63 0 -63 81q0 29 8 69l115 575q13 65 13 119q0 286 -357 286q-427 0 -492 -319l-16 -86h213q47 236 260 236q188 0 188 -115q0 -16 -4 -35q-29 -145 -243 -145 q-428 -1 -480 -265zM174 358q29 137 240 138q215 0 229 75l-29 -145q-55 -276 -268 -276q-179 0 -179 146q0 28 7 62z" />
<glyph unicode="b" d="M-156 0l316 1579h213l-158 -791q68 342 389 342q240 0 240 -298q0 -100 -27 -234l-18 -86q-106 -532 -426 -532q-264 0 -264 231q0 49 12 108l-64 -319h-213zM160 512q-19 -91 -19 -160q0 -203 160 -202q213 0 293 405l27 127q11 57 11 102q0 177 -169 177 q-213 0 -279 -322z" />
<glyph unicode="c" d="M8 598q-28 -139 -27 -246q0 -372 330 -372q426 0 500 362l16 84h-213q-55 -276 -268 -276q-160 0 -160 202q0 69 19 160l24 127q66 322 279 322q180 0 180 -140q0 -24 -6 -53l-16 -86h213q16 78 15 143q0 306 -351 305q-428 0 -508 -405z" />
<glyph unicode="d" d="M-37 598q-34 -172 -34 -296q0 -323 231 -322q319 0 405 426l-82 -406h213l318 1579h-215l-148 -748q9 46 9 85q0 215 -271 214q-319 0 -399 -405zM160 512l24 127q66 322 279 322q169 0 169 -177q0 -45 -11 -102l-27 -127q-80 -406 -293 -405q-160 0 -160 202 q0 69 19 160z" />
<glyph unicode="e" d="M8 598q-28 -139 -27 -246q0 -372 330 -372q427 0 492 319l16 86h-213q-47 -236 -260 -235q-164 0 -164 189q0 57 15 130h639l26 129q22 108 22 193q0 339 -341 339q-428 0 -508 -405zM229 639q66 322 279 322q169 0 169 -177q0 -45 -11 -102l-9 -43h-428z" />
<glyph unicode="f" horiz-adv-x="544" d="M-39 0h213l188 938h213l35 172h-213l33 170q25 129 240 129l35 170h-203q-223 0 -277 -256l-41 -213h-121l-32 -172h119z" />
<glyph unicode="g" horiz-adv-x="980" d="M-86 -63h213l-12 -64q-2 -10 -2 -18q0 -90 194 -91q213 0 268 279l56 276q-68 -340 -387 -339q-231 0 -231 322q0 124 34 296l25 127q80 406 401 405q269 0 269 -213q0 -39 -9 -86l55 279h216l-232 -1153q-74 -362 -500 -363q-368 0 -367 255q0 41 9 88zM244 512 q-19 -91 -19 -160q0 -203 160 -202q212 0 277 319l43 213q11 57 11 102q0 177 -169 177q-213 0 -279 -322z" />
<glyph unicode="h" d="M-158 0h213l129 639q66 322 277 322q169 0 169 -177q0 -45 -12 -102l-137 -682h215l119 598q27 134 27 234q0 299 -240 298q-322 0 -389 -342l158 791h-213z" />
<glyph unicode="i" horiz-adv-x="382" d="M-156 0h213l222 1110h-213zM115 1440q-4 -19 -4 -35q0 -82 104 -82q123 0 147 117q4 19 4 34q0 82 -104 82q-122 1 -147 -116z" />
<glyph unicode="j" horiz-adv-x="382" d="M-350 -406h153q215 0 258 222l258 1294h-213l-239 -1196q-31 -150 -182 -150zM156 1440q-4 -19 -4 -35q0 -82 104 -82q123 0 147 117q4 19 4 34q0 82 -104 82q-122 1 -147 -116z" />
<glyph unicode="k" horiz-adv-x="980" d="M-158 0h213l37 186l207 228l168 -414h244l-238 608l445 502h-246l-506 -559l205 1028h-213z" />
<glyph unicode="l" horiz-adv-x="382" d="M-158 0h213l316 1579h-213z" />
<glyph unicode="m" horiz-adv-x="1458" d="M-113 0h213l127 639q66 322 228 322q121 0 120 -155q0 -53 -14 -124l-137 -682h213l121 598q74 362 233 363q121 0 121 -155q0 -53 -14 -124l-135 -682h213l118 598q32 159 32 271q0 262 -175 261q-249 0 -363 -264q0 7 1 14q0 251 -228 250q-236 0 -303 -342l64 322 h-213z" />
<glyph unicode="n" d="M-113 0h213l127 639q66 322 279 322q158 0 158 -201q0 -69 -19 -162l-119 -598h213l138 682q19 97 19 173q0 275 -251 275q-319 0 -387 -342l64 322h-213z" />
<glyph unicode="o" d="M-8 512q-22 -108 -22 -193q0 -339 341 -339q428 0 508 405l43 213q22 108 22 193q0 339 -341 339q-428 0 -508 -405zM188 426l41 213q66 322 279 322q169 0 169 -177q0 -45 -11 -102l-43 -213q-65 -319 -277 -319q-169 0 -169 174q0 45 11 102z" />
<glyph unicode="p" horiz-adv-x="980" d="M-154 -406h213l138 682q-9 -46 -9 -85q0 -212 269 -211q319 0 417 489l27 129q27 132 27 232q0 301 -242 300q-319 0 -387 -342l63 322h-212zM244 512l24 127q66 322 279 322q169 0 169 -177q0 -45 -11 -102l-27 -127q-80 -406 -293 -405q-160 0 -160 202q0 69 19 160z " />
<glyph unicode="q" horiz-adv-x="1001" d="M47 598l25 127q101 406 411 405q259 0 260 -210q0 -40 -10 -89l55 279h216l-304 -1516h-213l162 812q-86 -426 -397 -426q-232 0 -232 343q0 118 27 275zM244 512q-19 -91 -19 -160q0 -203 160 -202q213 0 293 405l27 127q11 57 11 102q0 177 -169 177q-213 0 -279 -322z " />
<glyph unicode="r" horiz-adv-x="907" d="M-113 0h213l127 639q66 322 222 322q124 0 124 -125q0 -30 -8 -68l-8 -43h213q19 94 19 167q0 239 -201 238q-262 0 -330 -342l64 322h-213z" />
<glyph unicode="s" d="M-35 385q-13 -64 -12 -118q0 -287 358 -287q427 0 492 319q9 48 9 89q0 255 -363 271q-187 14 -188 123q0 14 3 29q31 150 244 150q188 0 188 -115q0 -16 -4 -35l-18 -86h213q13 65 13 119q0 286 -357 286q-428 0 -484 -276q-11 -54 -11 -101q0 -269 362 -284 q191 -8 191 -104q0 -11 -3 -23q-37 -193 -252 -192q-188 0 -188 114q0 16 4 35l18 86h-215z" />
<glyph unicode="t" horiz-adv-x="587" d="M25 256l137 682h-119l35 172h119l67 340h213l-67 -340h213l-33 -172h-215l-119 -596q-5 -24 -5 -44q0 -128 183 -128l-33 -170h-213q-174 0 -173 168q0 40 10 88z" />
<glyph unicode="u" d="M10 598q-34 -172 -34 -296q0 -323 231 -322q319 0 405 426l-82 -406h213l224 1110h-213l-113 -555q-80 -406 -293 -405q-160 0 -160 202q0 69 19 160l119 598h-213z" />
<glyph unicode="v" horiz-adv-x="1048" d="M111 1110l145 -1110h256l590 1110h-258l-410 -862l-67 862h-256z" />
<glyph unicode="w" horiz-adv-x="1210" d="M111 1110l26 -1110h213l260 623l13 -623h213l471 1110h-215l-297 -717l20 717h-213l-276 -717l-2 717h-213z" />
<glyph unicode="x" horiz-adv-x="972" d="M-111 0h248l289 397l129 -397h248l-246 543l467 567h-248l-297 -440l-121 440h-247l241 -567z" />
<glyph unicode="y" d="M-6 -406h158q172 0 288 222l717 1294h-256l-409 -860l-84 860h-256l196 -1110l-65 -129q-49 -106 -123 -107h-133z" />
<glyph unicode="z" horiz-adv-x="937" d="M-111 0h768l35 170h-522l674 768l35 172h-768l-33 -172h520l-676 -768z" />
<glyph unicode="{" horiz-adv-x="552" d="M-16 682q127 0 102 -127l-86 -428q-57 -297 283 -297h41l34 170h-43q-129 0 -110 86l102 512q33 170 -94 170q129 0 162 170l102 512q18 86 146 86h43l34 170h-43q-344 0 -401 -297l-86 -428q-25 -127 -154 -127z" />
<glyph unicode="|" horiz-adv-x="339" d="M-45 -385l453 2263h129l-451 -2263h-131z" />
<glyph unicode="}" horiz-adv-x="552" d="M-188 -170h43q344 0 401 297l86 428q25 127 154 127l32 172q-127 0 -102 127l86 428q57 297 -283 297h-41l-34 -170h43q129 0 110 -86l-102 -512q-33 -170 94 -170q-129 0 -162 -170l-102 -512q-18 -86 -146 -86h-43z" />
<glyph unicode="~" horiz-adv-x="972" d="M-25 639l9 43q53 256 391 256q172 0 186 -84q16 -86 121 -86q106 0 125 86l8 43h193l-9 -43q-53 -256 -393 -256q-172 0 -186 84q-14 86 -120.5 86t-125.5 -86l-8 -43h-191z" />
<glyph unicode="&#xa2;" d="M8 811l27 127q80 406 399 405l39 193h213l-37 -193q317 0 230 -446h-213l16 84q37 193 -174 193q-213 0 -279 -320l-24 -129q-74 -362 141 -363q213 0 268 277h213l-16 -84q-74 -362 -393 -362l-39 -193h-213l39 193q-320 0 -197 618z" />
<glyph unicode="&#xa3;" horiz-adv-x="1277" d="M-156 0l33 170q172 0 211 203l64 309h-172l34 172h170l19 84q123 618 571.5 618t349.5 -489h-213l17 84q47 236 -189 235q-233 0 -331 -489l-9 -43h383l-34 -172h-383l-50 -246q-53 -266 -180 -266h809l-33 -170h-1067z" />
<glyph unicode="&#xa5;" horiz-adv-x="1040" d="M111 256l16 86h172l16 84h-170l17 86h170l10 43l-188 981h256l82 -768l387 768h256l-580 -981l-8 -43h170l-17 -86h-172l-16 -84h170l-16 -86h-170l-52 -256h-215l54 256h-172z" />
<glyph unicode="&#xa9;" horiz-adv-x="1449" d="M-16 682q-141 -702 497 -702q641 0 791 745l24 129q141 702 -497 702q-641 0 -791 -745zM180 598l25 127q133 662 559 661q427 0 338 -448l-27 -127q-133 -662 -559 -662t-336 449zM240 682q-86 -426 297 -426q384 0 448 319l19 87h-216q-47 -236 -217 -236t-127 213 l17 86q78 385 248 385q168 0 135 -172l-17 -84h213q86 426 -299 426q-383 0 -477 -469z" />
<glyph unicode="&#xad;" horiz-adv-x="870" d="M0 682h854l33 172h-852z" />
<glyph unicode="&#xae;" horiz-adv-x="1449" d="M-16 682q-141 -702 489 -702q649 0 799 745l24 129q141 702 -505 702q-633 0 -783 -745zM180 598l25 127q133 662 551 661q436 0 346 -448l-27 -127q-133 -662 -571 -661q-414 -1 -324 448zM213 342h213l61 297h148q106 0 82 -127q-33 -170 43 -170h194q-57 0 -32 127 q53 256 -93 256q144 0 179 172q57 297 -205 297h-418zM520 811l43 213h150q109 0 90 -86q-25 -127 -133 -127h-150z" />
<glyph unicode="&#xb4;" horiz-adv-x="382" d="M-25 1366h127l265 256h-234z" />
<glyph unicode="&#x2000;" horiz-adv-x="937" />
<glyph unicode="&#x2001;" horiz-adv-x="1875" />
<glyph unicode="&#x2002;" horiz-adv-x="937" />
<glyph unicode="&#x2003;" horiz-adv-x="1875" />
<glyph unicode="&#x2004;" horiz-adv-x="624" />
<glyph unicode="&#x2005;" horiz-adv-x="468" />
<glyph unicode="&#x2006;" horiz-adv-x="311" />
<glyph unicode="&#x2007;" horiz-adv-x="311" />
<glyph unicode="&#x2008;" horiz-adv-x="233" />
<glyph unicode="&#x2009;" horiz-adv-x="374" />
<glyph unicode="&#x200a;" horiz-adv-x="102" />
<glyph unicode="&#x2010;" horiz-adv-x="870" d="M0 682h854l33 172h-852z" />
<glyph unicode="&#x2011;" horiz-adv-x="870" d="M0 682h854l33 172h-852z" />
<glyph unicode="&#x2012;" horiz-adv-x="870" d="M0 682h854l33 172h-852z" />
<glyph unicode="&#x2013;" horiz-adv-x="1339" d="M111 682h1323l34 172h-1323z" />
<glyph unicode="&#x2014;" horiz-adv-x="1722" d="M111 682h1708l32 172h-1706z" />
<glyph unicode="&#x2018;" horiz-adv-x="382" d="M-12 1300q-20 -106 84 -106q109 0 129 106q23 109 -86 109q12 63 121 64l12 63q-213 0 -260 -236z" />
<glyph unicode="&#x2019;" horiz-adv-x="382" d="M-35 1194q213 0 260 236q20 106 -84 106q-109 0 -129 -106.5t86 -106.5q-12 -63 -118 -63z" />
<glyph unicode="&#x201c;" horiz-adv-x="681" d="M-12 1300q-20 -106 84 -106q109 0 129 106q23 109 -86 109q12 63 121 64l12 63q-213 0 -260 -236zM287 1300q-20 -106 84 -106q109 0 129 106q23 109 -86 109q12 63 118 64l15 63q-213 0 -260 -236z" />
<glyph unicode="&#x201d;" horiz-adv-x="681" d="M-35 1194q213 0 260 236q20 106 -84 106q-109 0 -129 -106.5t86 -106.5q-12 -63 -118 -63zM264 1194q213 0 260 236q20 106 -84 106q-109 0 -129 -106.5t86 -106.5q-12 -63 -121 -63z" />
<glyph unicode="&#x2022;" horiz-adv-x="614" d="M127 759.5q0 -184.5 178 -184.5t178 184.5t-178 184.5t-178 -184.5z" />
<glyph unicode="&#x2026;" horiz-adv-x="675" d="M127 104q-23 -109 82 -108q106 0 129 108q23 111 -84 111t-127 -111zM553 104q-23 -109 82 -108q106 0 129 108q23 111 -84 111t-127 -111zM981 104q-23 -109 82 -108q106 0 129 108q23 111 -84 111t-127 -111z" />
<glyph unicode="&#x202f;" horiz-adv-x="374" />
<glyph unicode="&#x205f;" horiz-adv-x="468" />
<glyph unicode="&#x2122;" horiz-adv-x="1406" d="M0 1451h171l-137 -683h107.5l136 683h171l16.5 85h-447.5zM349 768h106.5l106.5 533.5l43 -533.5h128l256 533.5l-106.5 -533.5h106.5l154 768h-149.5l-292 -608.5l-49 608.5h-149.5z" />
<glyph unicode="&#xe000;" horiz-adv-x="1110" d="M0 1110h1110v-1110h-1110v1110z" />
<glyph unicode="&#xfb01;" horiz-adv-x="929" d="M391 0h213l222 1110h-213zM662 1440q-4 -19 -4 -35q0 -82 104 -82q123 0 147 117q4 19 4 34q0 82 -104 82q-122 1 -147 -116zM-39 0h213l188 938h213l35 172h-213l33 170q25 129 240 129l35 170h-203q-223 0 -277 -256l-41 -213h-121l-32 -172h119z" />
<glyph unicode="&#xfb02;" horiz-adv-x="929" d="M389 0h213l316 1579h-213zM-39 0h213l188 938h213l35 172h-213l33 170q25 129 240 129l35 170h-203q-223 0 -277 -256l-41 -213h-121l-32 -172h119z" />
<glyph unicode="&#xfb03;" horiz-adv-x="1474" d="M936 0h213l222 1110h-213zM1207 1440q-4 -19 -4 -35q0 -82 104 -82q123 0 147 117q4 19 4 34q0 82 -104 82q-122 1 -147 -116zM508 0h213l188 938h213l35 172h-213l33 170q25 129 240 129l35 170h-203q-223 0 -277 -256l-41 -213h-121l-32 -172h119zM-39 0h213l188 938 h213l35 172h-213l33 170q25 129 240 129l35 170h-203q-223 0 -277 -256l-41 -213h-121l-32 -172h119z" />
<glyph unicode="&#xfb04;" horiz-adv-x="1474" d="M934 0h213l316 1579h-213zM508 0h213l188 938h213l35 172h-213l33 170q25 129 240 129l35 170h-203q-223 0 -277 -256l-41 -213h-121l-32 -172h119zM-39 0h213l188 938h213l35 172h-213l33 170q25 129 240 129l35 170h-203q-223 0 -277 -256l-41 -213h-121l-32 -172h119z " />
</font>
</defs>
</svg>
